<svg id="Layer_1" xmlns="http://www.w3.org/2000/svg" viewBox="0 0 224.7 215.8"><style>.st0{fill:#D0B669;} .st1{fill:#333132;}</style><path class="st0" d="M164.9 130.3l13 20.9-37.9-20.1v-14l24.9 13.2zM140 142.5v14.7l61.9 32.9-13.6-21.9-48.3-25.7zM36.5 167.7L22.6 190l61.9-32.9v-15l-48 25.6zm23.2-37.4L47 150.8l37.6-20v-13.7l-24.9 13.2zM15.4 77.1v105.8l12.4-20V87l-12.4-9.9zM37.8 87v59.7l12.9-20.9V76.7L37.8 87zm158.5 0v75l13 21V76.6l-13 10.4zm-22.4-9.9v48.8l12.3 19.9V87l-12.3-9.9zm-56.6 67V177c0 2.8-2.3 5-5 5-2.8 0-5-2.2-5-5v-32.9L94.6 134v45.4c0 9.7 7.9 17.7 17.7 17.7 9.8 0 17.7-7.9 17.7-17.7V134l-12.7 10.1z"/><path class="st1" d="M219.3 27.6v183.1L140 168.5v10.8c0 15.3-12.4 27.7-27.7 27.7-15.3 0-27.7-12.4-27.7-27.7v-10.8L5.3 210.7V27.6l27.5-14.7 27.9 14.7v90.8l23.9-12.7V80.5l27.7-14.7L140 80.5v25.2l23.9 12.7V27.6l27.4-14.7 28 14.7zm-10 155.3V45l-13 10.4V162l13 20.9zm-18-136.3L208.2 33l-16.9-8.8-16.7 9 16.7 13.4zM201.9 190l-13.6-21.9-48.3-25.6v14.7l61.9 32.8zm-15.6-44.2V55.4L174 45.5v80.4l12.3 19.9zm-8.4 5.4l-13-20.9-24.9-13.2v14l37.9 20.1zM130 179.3V97.5l-12.7 10.1V177c0 2.8-2.3 5-5 5-2.8 0-5-2.2-5-5v-69.4L94.7 97.5v81.8c0 9.7 7.9 17.7 17.7 17.7 9.7 0 17.6-8 17.6-17.7zm-17.7-80.4l16.3-13.1-16.3-8.6L96 85.8l16.3 13.1zm-27.7 58.3v-15l-48.1 25.6-13.8 22.3 61.9-32.9zm0-26.4v-13.7l-24.9 13.3L47 150.8l37.6-20zm-33.9-5V45.1L37.8 55.4v91.2l12.9-20.8zM32.8 46.6l16.9-13.5-16.8-8.9-16.8 9 16.7 13.4zm-5 116.2V55.4l-12.4-9.9v137.3l12.4-20z"/><path class="st1" d="M112.1 5.1c13.9 0 25.2 11.3 25.2 25.2 0 13.9-11.3 25.2-25.2 25.2-13.9 0-25.2-11.3-25.2-25.2 0-13.9 11.3-25.2 25.2-25.2zm15.1 25.2c0-8.4-6.8-15.2-15.2-15.2-8.4 0-15.2 6.8-15.2 15.2 0 8.4 6.8 15.2 15.2 15.2 8.5 0 15.2-6.8 15.2-15.2z"/></svg>